<?xml version="1.0" encoding="UTF-8"?>
<svg enable-background="new 0 0 512.002 512.002" version="1.1" viewBox="0 0 512.002 512.002" xml:space="preserve" xmlns="http://www.w3.org/2000/svg">
<circle cx="256" cy="256" r="256" fill="#006775"/>
<path d="m250.77 366.54l24.767-18.804-50.604-50.204 48.002-197.68 49.38-14.996 189.05 189.05c-9.19 133.03-120 238.1-255.37 238.1-5.073 0-10.108-0.166-15.109-0.456l-78.162-78.162 4.028-3.061-25.821-25.821 26.366-17.594 24.446 24.446 15.718-11.935-65.589-65.589 38.093-38.093 70.803 70.803z" fill="#055661"/>
<path d="m161.22 286.08c-18.613 8.18-2.535 21.416-2.535 21.416s-0.794 4.378-3.419 4.378c-2.623 0-16.121-7.001-18.744 5.334-2.625 12.334 5.557 23.231 23.243 17.669l16.823-5.287c6.385-2.009 145.83 78.343 145.83 83.009 0 4.669 3.514 23.454 17.431 22.504 30.46-2.081 8.162-23.549 11.623-26.338 5.997-4.834-0.561-4.666 12.935-2.667 13.494 2.002 16.587-23.671 1.592-24.753-14.996-1.084-22.306 7.084-26.336 8.418-4.03 1.333-149.49-82.192-149.49-82.192-9.143-10.367-10.344-29.669-28.957-21.491z" fill="#E6E6E6"/>
<path d="m138.91 312.23c-1.07 1.124-1.913 2.727-2.39 4.978-2.625 12.334 5.557 23.231 23.243 17.669l16.823-5.287c6.385-2.009 145.83 78.343 145.83 83.009 0 4.669 3.514 23.454 17.431 22.504 26.624-1.818 12.942-18.449 11.385-24.471 0.242 0.971 2.793 8.678 2.722 11.306-0.399 15.284-33.415 14.122-27.531-11.25 1.331-5.737-139.86-84.236-146.32-83.598-17.237 1.703-45.893 18.503-41.194-14.86z" fill="#ccc"/>
<path d="m350.78 286.08c18.613 8.18 2.535 21.416 2.535 21.416s0.794 4.378 3.419 4.378c2.623 0 16.121-7.001 18.744 5.334 2.625 12.334-5.557 23.231-23.243 17.669l-16.823-5.287c-6.385-2.009-145.83 78.343-145.83 83.009 0 4.669-3.514 23.454-17.431 22.504-30.46-2.081-8.162-23.549-11.623-26.338-5.997-4.834 0.561-4.666-12.935-2.667-13.494 2.002-16.587-23.671-1.592-24.753 14.996-1.084 22.306 7.084 26.336 8.418 4.03 1.333 149.49-82.192 149.49-82.192 9.143-10.367 10.344-29.669 28.957-21.491z" fill="#E6E6E6"/>
<path d="m373.09 312.23c1.07 1.124 1.913 2.727 2.39 4.978 2.625 12.334-5.557 23.231-23.243 17.669l-16.823-5.287c-6.386-2.009-145.83 78.343-145.83 83.009 0 4.669-3.514 23.454-17.431 22.504-26.624-1.818-12.942-18.449-11.385-24.471-0.242 0.971-2.793 8.678-2.722 11.306 0.399 15.284 33.415 14.122 27.531-11.25-1.331-5.737 139.86-84.236 146.32-83.598 17.237 1.703 45.893 18.503 41.194-14.86z" fill="#ccc"/>
<path d="m177.25 138.66c2.223 10.077 10.24 21.753 7.066 36.411-0.719 3.319-2.427 22.228-4.638 29.375-2.706 8.749 0.021 17.999 5.19 26.852 10.459 17.904 10.066-2.288 22.207 18.588 4.247 7.301 7.026 14.925 9.26 22.004-0.703 2.466-0.877 16.023-0.36 17.764 1.405 4.738 13.163 17.496 18.195 20.431 7.07 4.129 14.15 3.81 22.13 2.741 7.981 1.068 15.025 1.408 22.13-2.741 5.372-3.135 16.74-15.111 18.318-20.431 0.447-1.504 0.438-14.401-0.046-16.544 2.507-7.414 5.513-15.502 10.007-23.224 12.144-20.876 11.748-0.682 22.207-18.588 6.433-11.015 8.392-25.148 4.733-34.837-1.684-4.454-4.799-19.065-5.299-21.39-3.174-14.657 4.848-26.338 7.066-36.411 1.732-7.878-2.653-27.818-3.91-34.283-11.573-59.443-137.34-59.513-149.18-0.212-1.302 6.52-6.828 26.527-5.071 34.495z" fill="#ECECEC"/>
<g fill="#ccc">
	<path d="m212.32 260.62c1.569 3.824 2.865 7.617 4.017 11.269-0.314 1.101-0.524 4.403-0.612 7.882 0.579-0.396 1.098-0.849 1.478-1.38 1.709-2.369 1.88-4.987 1.88-8.537 0-3.552 3.549-22.186 9.981-24.627 6.435-2.439 7.213-17.748 8.985-24.846-14.827-3.151-17.317 4.812-21.42 10.645-6.39 5.42-13.796 5.737-20.122 8.415l15.813 21.179zm84.743 19.248c-0.037-3.056-0.159-5.86-0.36-6.761 2.507-7.414 5.513-15.502 10.007-23.224 4.701-8.085 7.524-10.009 9.826-10.373-6.574-0.91-9.425-0.701-15.902-4.101-8.265-4.338-6.655-19.077-25.958-14.973 1.774 7.098 2.551 22.407 8.985 24.846 6.433 2.439 9.981 21.076 9.981 24.627 0 3.549 0.172 6.168 1.88 8.537 0.396 0.55 0.936 1.018 1.541 1.422z"/>
	<path d="m328.02 173.3c-1.746-2.232-3.426-5.064-4.559-8.376-2.881-8.431-11.757-15.974-11.757-15.974s-7.988-6.435-5.99-24.625c1.252-11.422 14.922-19.258 24.926-23.508 0.328 1.163 0.63 2.346 0.868 3.561 1.257 6.465 5.642 26.405 3.91 34.283-2.129 9.662-9.599 20.808-7.398 34.639zm-150.77-34.64c-1.757-7.969 3.767-27.976 5.068-34.495 0.198-0.999 0.438-1.981 0.701-2.946 9.898 4.332 22.777 12.034 23.992 23.106 1.995 18.19-5.99 24.625-5.99 24.625s-8.876 7.543-11.76 15.974c-1.147 3.356-2.86 6.223-4.632 8.466 2.249-13.875-5.242-25.041-7.379-34.73z"/>
</g>
<path d="m249.88 208.84s-11.857 17.084-9.861 23.517c1.999 6.433 5.769 3.77 8.876 4.657 3.105 0.889 5.546 0.889 5.546 0.889s0.798-3.991 1.664-9.852c0.865 5.86 2.169 9.852 2.169 9.852s2.441 0 5.546-0.889c3.107-0.886 6.877 1.776 8.876-4.657 1.997-6.433-9.861-23.517-9.861-23.517-2.092-1.538-5.451 4.066-6.477 6.053-1.026-1.987-4.386-7.591-6.478-6.053z" fill="#4D4D4D"/>
<path d="m226.05 256.45c4.205 0.026 4.41 1.163 4.41 1.163s1.38-2.053 4.819-1.832c3.437 0.221 3.382 2.108 3.382 2.108s4.547-2.662 6.544-1.443c1.999 1.22 1.166 1.387 1.166 1.387s4.05-2.941 7.766-0.945c1.257 0.678 1.979 1.094 2.381 1.352 0.403-0.258 1.121-0.675 2.378-1.352 3.716-1.997 7.766 0.945 7.766 0.945s-0.831-0.168 1.166-1.387c1.997-1.22 6.544 1.443 6.544 1.443s-0.056-1.887 3.384-2.108c3.439-0.221 4.819 1.832 4.819 1.832s0.203-1.138 4.41-1.163c4.205-0.028 4.021 7.536 5.12 10.636 0.612 1.718-1.199 3.656-1.199 3.656s-0.081 1.303-0.47 3.3c-0.391 1.997-2.888 6.456-4.163 9.118s-3.826 1.497-3.826 1.497-1.331 1.166-2.662 2.939c-1.333 1.776-6.325 0.777-6.325 0.777-3.689 3.784-5.034 4.517-10.484 3.545-0.696 1.022-4.482 2.397-6.095 2.948v0.242l-0.363-0.118-0.365 0.118v-0.242c-1.613-0.551-5.4-1.927-6.092-2.948-5.453 0.973-6.798 0.24-10.487-3.545 0 0-4.992 0.999-6.323-0.777-1.331-1.774-2.665-2.939-2.665-2.939s-2.551 1.166-3.826-1.497c-1.275-2.662-3.772-7.121-4.161-9.118-0.391-1.997-0.473-3.3-0.473-3.3s-1.808-1.938-1.199-3.656c1.102-3.1 0.915-10.663 5.123-10.636z" fill="#B3B3B3"/>
<g fill="#fff">
	<path d="m259.84 258.05s-3.228 2.083-3.204 6.034c0.026 3.952 0.14 11.367 0.14 11.367s1.036 1.622 5.886 1.008c4.855-0.619 5.006-1.154 5.006-1.154s-1.121-13.675-1.149-14.189c-0.029-0.515 0.947-4.795-6.679-3.066zm-6.966 0s3.228 2.085 3.204 6.037c-0.026 3.949-0.14 11.365-0.14 11.365s-1.036 1.622-5.886 1.006c-4.855-0.616-5.006-1.152-5.006-1.152s1.121-13.672 1.149-14.189c0.028-0.516-0.947-4.794 6.679-3.067zm-9.228-0.02s2.307 1.301 2.138 5.034c-0.166 3.733-1.015 11.413-1.015 11.413-1.428 2.111-8.69 0.27-8.767-2.297 0 0 1.457-10.175 1.499-10.657 0.045-0.487 1.327-5.265 6.145-3.493zm-8.341-0.192s2.025 1.296 1.732 4.648c-0.293 3.349-1.352 10.212-1.352 10.212-1.366 1.82-7.831-0.242-7.799-2.558 0 0 1.702-9.072 1.757-9.504 0.058-0.435 1.396-4.664 5.662-2.798zm33.762 0.192s-2.307 1.301-2.138 5.034c0.166 3.733 1.015 11.413 1.015 11.413 1.428 2.111 8.69 0.27 8.767-2.297 0 0-1.457-10.175-1.499-10.657-0.046-0.487-1.327-5.265-6.145-3.493zm8.341-0.192s-2.025 1.296-1.734 4.648c0.295 3.349 1.354 10.212 1.354 10.212 1.366 1.82 7.829-0.242 7.799-2.558 0 0-1.702-9.072-1.76-9.504-0.055-0.435-1.391-4.662-5.659-2.798zm7.475 0.205s-1.617 1.161-1.266 3.894c0.356 2.729 1.453 8.302 1.453 8.302 1.18 1.424 6.407-0.582 6.304-2.477 0 0-1.698-7.352-1.76-7.704-0.06-0.353-1.296-3.749-4.731-2.015zm-57.053 0s1.617 1.163 1.266 3.894c-0.353 2.729-1.453 8.302-1.453 8.302-1.183 1.424-6.407-0.584-6.304-2.477 0 0 1.699-7.352 1.76-7.704 0.06-0.353 1.298-3.751 4.731-2.015z"/>
	<path d="m256.81 289.24l-0.147-8.992c-0.044-2.807 9.005-4.08 10.21-1.631 0.726 1.471-2.823 10.352-3.1 10.773-0.276 0.419-5.12 5.243-6.963-0.15zm-0.907 0l0.147-8.992c0.044-2.807-9.005-4.08-10.21-1.631-0.726 1.471 2.823 10.352 3.1 10.773 0.277 0.419 5.12 5.243 6.963-0.15zm-24.884-8.073l-2.867-7.233c-0.526-1.324-3.822-3.042-4.911-1.675-0.905 1.135 3.075 8.02 3.248 8.332 0.174 0.31 4.551 4.993 4.53 0.576zm7.359 3.386l-1.368-3.894-1.354-3.331-0.494-1.04c-0.71-1.49-4.771-3.709-6.037-2.118-1.056 1.326 4.168 9.94 4.369 10.307 0.198 0.373 4.682 4.24 4.884 0.076zm2.628 3.254c0.277 0.419 6.63 5.324 6.537-0.379l-2.816-8.5c-0.582-1.792-6.856-4.322-8.544-2.611-0.125 0.129-0.193 0.323-0.212 0.57 0.362 2.107 3.65 8.798 5.035 10.92zm40.685-6.64l2.87-7.233c0.526-1.324 3.822-3.042 4.908-1.675 0.907 1.135-3.075 8.02-3.246 8.332-0.175 0.311-4.551 4.993-4.532 0.576zm-7.359 3.386l1.37-3.894 1.354-3.331 0.494-1.04c0.708-1.49 4.768-3.709 6.037-2.118 1.054 1.326-4.168 9.94-4.369 10.307-0.199 0.373-4.681 4.24-4.886 0.076zm-2.625 3.254c-0.277 0.419-6.63 5.324-6.537-0.379l2.814-8.5c0.584-1.792 6.858-4.322 8.546-2.611 0.125 0.129 0.191 0.323 0.21 0.57-0.36 2.107-3.651 8.798-5.033 10.92z"/>
</g>
<path d="m237.07 158.12c9.23 1.73 7.213 12.369 7.126 17.667-0.123 7.462-4.208 14.999-9.547 17.676-7.156 3.587-28.949 6.41-37.835-2.29-9.047-8.853-0.293-24.199 2.397-27.087 8.683-9.32 31.702-7.119 37.859-5.966z" fill="#4D4D4D"/>
<path d="m239.03 151.34c5.695 2.162 9.23 7.384 8.604 10.424-0.626 3.042-2.775 7.938-3.193 8.383 0.067-5.104-0.824-10.807-7.368-12.032l-0.3-0.056-0.323-0.056-0.349-0.056-0.372-0.058-0.391-0.058-0.415-0.058-0.433-0.058h-2e-3l-0.452-0.056-0.475-0.058-0.491-0.056-0.507-0.053-0.526-0.053-0.54-0.049h-2e-3l-0.556-0.049-0.57-0.046h-2e-3l-0.584-0.042-0.6-0.042-0.609-0.037h-2e-3l-0.621-0.032h-2e-3l-0.633-0.028v-2e-3l-0.644-0.023-2e-3 -2e-3 -0.651-0.019h-2e-3l-0.661-0.016h-2e-3l-0.671-9e-3v-2e-3l-0.68-5e-3 -1.377 7e-3h-2e-3l-0.696 0.014h-2e-3l-0.701 0.016h-2e-3l-0.705 0.026v2e-3l-0.71 0.032-0.712 0.039v2e-3l-0.715 0.046-0.715 0.056-0.717 0.063v2e-3l-0.715 0.072-0.715 0.079v2e-3l-0.715 0.088v2e-3c-0.475 0.063-0.948 0.135-1.415 0.21l-0.703 0.118h-2e-3l-0.699 0.131-0.694 0.14v2e-3l-0.687 0.152h-2e-3c-0.456 0.104-0.905 0.214-1.352 0.335v2e-3l-0.664 0.184h-2e-3l-0.657 0.198-0.644 0.21h-2e-3l-0.635 0.221v2e-3l-0.626 0.235-0.614 0.247-0.6 0.263-0.589 0.275v2e-3l-0.572 0.288h-2e-3l-0.558 0.302-0.544 0.319-0.528 0.332-0.512 0.349-0.494 0.365-0.477 0.377-0.456 0.396c-0.149 0.135-0.295 0.27-0.438 0.412v2e-3l-0.417 0.426c-1.704 1.827-5.832 8.643-6.344 15.646-1.709-4.45 0.808-20.001 7.713-23.084 3.167-1.412 21.948-9.279 38.446-5.301h-4e-3z" fill="#E6E6E6"/>
<path d="m275.64 158.12c-9.23 1.73-7.213 12.369-7.126 17.667 0.123 7.462 4.208 14.999 9.547 17.676 7.156 3.587 28.949 6.41 37.835-2.29 9.049-8.853 0.293-24.199-2.397-27.087-8.682-9.32-31.701-7.119-37.859-5.966z" fill="#4D4D4D"/>
<path d="m273.68 151.34c-5.695 2.162-9.227 7.384-8.604 10.424 0.626 3.042 2.775 7.938 3.193 8.383-0.067-5.104 0.824-10.807 7.368-12.032l0.3-0.056 0.323-0.056 0.349-0.056 0.372-0.058 0.391-0.058 0.415-0.058 0.433-0.058h2e-3l0.452-0.056 0.475-0.058 0.491-0.056 0.507-0.053 0.526-0.053 0.54-0.049h2e-3l0.556-0.049 0.57-0.046h2e-3l0.584-0.042 0.6-0.042 0.609-0.037h2e-3l0.621-0.032h2e-3l0.633-0.028v-2e-3l0.644-0.023 2e-3 -2e-3 0.651-0.019h2e-3l0.661-0.016h2e-3l0.671-9e-3v-2e-3l0.68-5e-3 1.377 7e-3h2e-3l0.696 0.014h2e-3l0.701 0.016h2e-3l0.705 0.026v2e-3l0.71 0.032 0.712 0.039v2e-3l0.715 0.046 0.715 0.056 0.717 0.063v2e-3l0.715 0.072 0.715 0.079v2e-3l0.715 0.088v2e-3c0.475 0.063 0.948 0.135 1.417 0.21l0.701 0.118h2e-3l0.699 0.131 0.694 0.14v2e-3l0.687 0.152h2e-3c0.456 0.104 0.905 0.214 1.352 0.335v2e-3l0.664 0.184h2e-3l0.656 0.198 0.644 0.21h2e-3l0.635 0.221v2e-3l0.626 0.235 0.614 0.247 0.6 0.263 0.589 0.275v2e-3l0.572 0.288h2e-3l0.558 0.302 0.544 0.319 0.528 0.332 0.512 0.349 0.494 0.365 0.477 0.377 0.456 0.396c0.149 0.135 0.295 0.27 0.438 0.412v2e-3l0.417 0.426c1.704 1.827 5.832 8.643 6.344 15.646 1.711-4.45-0.808-20.001-7.713-23.084-3.167-1.412-21.946-9.279-38.446-5.301h5e-3z" fill="#E6E6E6"/>
</svg>
