<?xml version="1.0" encoding="UTF-8"?>
<!DOCTYPE svg  PUBLIC '-//W3C//DTD SVG 1.1//EN'  'http://www.w3.org/Graphics/SVG/1.1/DTD/svg11.dtd'>
<svg enable-background="new 0 0 432.464 432.464" version="1.1" viewBox="0 0 432.464 432.464" xml:space="preserve" xmlns="http://www.w3.org/2000/svg">
	<path d="m417.3 363.07l-184.49-319.54c-2.895-5.015-7.057-8.561-11.743-10.66v-2.277l-12.349 0.055c-8.138 0.52-16.064 4.813-20.723 12.882l-184.49 319.54c-9.959 17.249 2.49 38.811 22.407 38.811h368.98c19.918 0 32.366-21.562 22.407-38.811z" fill="#666"/>
	<path d="m15.166 363.07l184.49-319.54c9.959-17.249 34.856-17.249 44.815 0l184.49 319.54c9.959 17.249-2.49 38.811-22.407 38.811h-368.98c-19.918 0-32.367-21.562-22.408-38.811z" fill="#808080"/>
	<polygon points="48.184 369.88 222.06 68.712 395.94 369.88" fill="#F9ED82"/>
	<circle cx="222.06" cy="323.82" r="24" fill="#666"/>
	<path d="m222.06 148.82c-12.982 0-23.251 10.992-22.367 23.944l6.348 93.091c0.574 8.424 7.576 14.965 16.02 14.965s15.445-6.54 16.02-14.965l6.348-93.091c0.881-12.951-9.387-23.944-22.369-23.944z" fill="#666"/>
</svg>
