<?xml version="1.0" encoding="UTF-8"?>
<svg enable-background="new 0 0 512.004 512.004" version="1.1" viewBox="0 0 512.004 512.004" xml:space="preserve" xmlns="http://www.w3.org/2000/svg">
<path d="m465.36 213.91c-5.848-5.548-12.154-10.616-18.837-15.171-6.302-4.293-12.932-8.134-19.87-11.438-0.098-0.047-0.202-0.09-0.3-0.137-6.753-3.199-13.78-5.905-21.037-8.074-6.916-2.067-14.043-3.643-21.338-4.691-6.972-1-14.093-1.531-21.338-1.531-1.781 0-3.553 0.036-5.319 0.097-0.587 0.021-1.169 0.061-1.755 0.088-1.175 0.055-2.35 0.112-3.521 0.195-0.697 0.048-1.39 0.117-2.084 0.175-1.048 0.09-2.097 0.178-3.138 0.289-0.741 0.078-1.478 0.172-2.216 0.26-0.987 0.119-1.974 0.242-2.956 0.381-0.758 0.108-1.516 0.226-2.273 0.344-0.952 0.149-1.9 0.306-2.845 0.474-0.767 0.135-1.529 0.277-2.29 0.425-0.926 0.178-1.849 0.367-2.768 0.563-0.629 0.134-1.256 0.273-1.883 0.414-0.138 0.031-0.277 0.06-0.415 0.091-0.903 0.208-1.804 0.428-2.7 0.652-0.764 0.191-1.528 0.381-2.287 0.583-0.694 0.185-1.383 0.383-2.073 0.58-0.192 0.055-0.387 0.107-0.58 0.162-0.219 0.063-0.438 0.128-0.657 0.191-0.536 0.154-1.075 0.304-1.607 0.467-0.878 0.267-1.748 0.553-2.619 0.835-0.595 0.193-1.192 0.385-1.785 0.582-0.147 0.048-0.294 0.094-0.44 0.144-0.883 0.302-1.755 0.626-2.632 0.945-0.481 0.175-0.96 0.358-1.44 0.536s-0.963 0.351-1.44 0.536c-0.626 0.242-1.245 0.498-1.868 0.747s-1.249 0.488-1.868 0.747c-0.193 0.081-0.385 0.169-0.578 0.253-0.634 0.275-1.265 0.552-1.898 0.831-0.698 0.307-1.403 0.607-2.098 0.925-0.845 0.388-1.681 0.797-2.519 1.201-0.656 0.316-1.316 0.626-1.966 0.952-0.848 0.424-1.684 0.863-2.522 1.303-0.624 0.327-1.252 0.653-1.871 0.989-0.846 0.459-1.686 0.93-2.521 1.405-0.593 0.337-1.186 0.674-1.774 1.019-0.849 0.496-1.69 1.003-2.525 1.515-0.558 0.34-1.111 0.684-1.663 1.033-0.854 0.538-1.7 1.083-2.542 1.636-0.511 0.337-1.02 0.68-1.525 1.023-0.866 0.586-1.728 1.175-2.58 1.778-0.451 0.32-0.899 0.649-1.347 0.973-0.235 0.169-0.465 0.344-0.698 0.515-0.656 0.477-1.313 0.953-1.957 1.442-0.358 0.272-0.711 0.552-1.067 0.826-0.952 0.735-1.902 1.474-2.835 2.23-0.148 0.119-0.293 0.246-0.441 0.367-2.329 1.905-4.598 3.876-6.807 5.915-2.208 2.038-4.356 4.141-6.437 6.307-0.051 0.053-0.102 0.105-0.154 0.158-0.05 0.051-0.101 0.102-0.151 0.154-0.918 0.959-1.814 1.936-2.706 2.919-0.101 0.112-0.203 0.223-0.306 0.336-0.102 0.112-0.205 0.222-0.306 0.336-0.842 0.94-1.669 1.896-2.487 2.858-0.235 0.276-0.472 0.551-0.706 0.829-0.797 0.95-1.579 1.912-2.353 2.882-0.233 0.294-0.469 0.589-0.7 0.885-0.489 0.623-0.966 1.258-1.447 1.889-0.272 0.357-0.551 0.71-0.819 1.07-0.218 0.293-0.435 0.587-0.652 0.882-0.212 0.289-0.415 0.583-0.626 0.873-0.532 0.733-1.064 1.464-1.582 2.208-0.184 0.265-0.364 0.531-0.546 0.795-0.743 1.083-1.478 2.172-2.194 3.275-0.124 0.191-0.243 0.384-0.366 0.573-0.764 1.189-1.516 2.386-2.248 3.596-1.016 1.684-1.992 3.393-2.943 5.118-0.39 0.708-0.78 1.418-1.157 2.134-0.292 0.546-0.579 1.094-0.862 1.644-0.681 1.324-1.351 2.654-1.993 4.002-3.26 6.844-6.01 13.975-8.209 21.338-2.067 6.916-3.643 14.044-4.691 21.338-1.001 6.972-1.531 14.094-1.531 21.338 0 1.977 0.048 3.942 0.125 5.901 0.026 0.629 0.065 1.255 0.098 1.882 0.07 1.336 0.149 2.667 0.255 3.994 0.057 0.72 0.121 1.438 0.188 2.157 0.117 1.253 0.25 2.501 0.397 3.744 0.085 0.707 0.165 1.415 0.259 2.118 0.182 1.361 0.388 2.714 0.607 4.064 0.09 0.552 0.165 1.107 0.26 1.657 0.319 1.836 0.67 3.662 1.054 5.474 0.129 0.61 0.279 1.213 0.415 1.819 0.277 1.232 0.562 2.461 0.869 3.683 0.198 0.777 0.405 1.549 0.615 2.322 0.282 1.043 0.572 2.083 0.875 3.117 0.239 0.811 0.481 1.62 0.733 2.425 0.312 1 0.64 1.993 0.973 2.984 0.267 0.795 0.526 1.593 0.807 2.381 0.393 1.112 0.811 2.211 1.23 3.312 0.464 1.216 0.945 2.425 1.44 3.627 0.417 1.01 0.831 2.023 1.27 3.023 0.376 0.859 0.771 1.706 1.162 2.555 0.374 0.814 0.75 1.626 1.139 2.431 0.422 0.876 0.856 1.745 1.294 2.612 0.387 0.762 0.782 1.521 1.182 2.276 0.459 0.872 0.922 1.743 1.4 2.603 0.404 0.731 0.825 1.451 1.242 2.174 0.498 0.862 0.986 1.73 1.499 2.58 1e-3 0 1e-3 1e-3 1e-3 1e-3 0.817 1.351 1.654 2.689 2.512 4.012 0.388 0.602 0.792 1.195 1.189 1.791 0.64 0.96 1.289 1.915 1.953 2.859 0.35 0.501 0.7 1 1.055 1.496 1.03 1.428 2.073 2.846 3.151 4.238 1.091 1.408 2.208 2.797 3.347 4.165 3.42 4.103 7.054 8.02 10.888 11.736 3.881 3.761 7.963 7.315 12.231 10.64 1.423 1.11 2.866 2.193 4.329 3.25 6.144 4.442 12.638 8.43 19.43 11.912 20.379 10.447 43.458 16.347 67.889 16.347 82.359 0 149.36-67.004 149.36-149.36 3e-3 -42.607-17.933-81.093-46.641-108.33z" fill="#C2FB3B"/>
<path d="m330.78 311.41l13.363 13.362 18.493-18.493v-133.41c-1.781 0-3.553 0.036-5.319 0.097-0.587 0.021-1.169 0.061-1.755 0.088-1.175 0.055-2.35 0.112-3.521 0.195-0.697 0.048-1.39 0.117-2.084 0.175-1.048 0.09-2.097 0.178-3.138 0.289-0.741 0.078-1.478 0.172-2.216 0.26-0.987 0.119-1.974 0.242-2.956 0.381-0.758 0.108-1.516 0.226-2.273 0.344-0.952 0.149-1.9 0.306-2.845 0.474-0.767 0.135-1.529 0.277-2.29 0.425-0.926 0.178-1.849 0.367-2.768 0.563-0.767 0.164-1.533 0.33-2.297 0.505-0.903 0.208-1.804 0.428-2.7 0.652-0.764 0.191-1.528 0.381-2.287 0.583-0.889 0.238-1.771 0.489-2.652 0.743-0.755 0.216-1.514 0.428-2.265 0.657-0.878 0.267-1.748 0.553-2.619 0.835-0.741 0.24-1.488 0.474-2.223 0.725-0.883 0.302-1.755 0.626-2.632 0.945-0.963 0.35-1.926 0.703-2.879 1.071-1.252 0.484-2.499 0.976-3.736 1.492-0.832 0.349-1.65 0.72-2.475 1.083-0.698 0.307-1.403 0.607-2.098 0.925-0.845 0.388-1.681 0.797-2.519 1.201-0.656 0.316-1.316 0.626-1.966 0.952-0.848 0.424-1.684 0.863-2.522 1.303-0.624 0.327-1.252 0.653-1.871 0.989-0.846 0.459-1.686 0.93-2.521 1.405-0.593 0.337-1.186 0.674-1.774 1.019-0.849 0.496-1.69 1.003-2.525 1.515-0.558 0.34-1.111 0.684-1.663 1.033-0.854 0.538-1.7 1.083-2.542 1.636-0.511 0.337-1.02 0.68-1.525 1.023-0.866 0.586-1.728 1.175-2.58 1.778-0.451 0.32-0.899 0.649-1.347 0.973-0.892 0.646-1.781 1.293-2.656 1.957-0.358 0.272-0.711 0.552-1.067 0.826-0.952 0.735-1.902 1.474-2.835 2.23-0.148 0.119-0.293 0.246-0.441 0.367-4.656 3.808-9.08 7.889-13.244 12.222-0.1 0.105-0.205 0.208-0.304 0.312-0.918 0.959-1.814 1.936-2.706 2.919-0.203 0.225-0.408 0.445-0.612 0.67-0.842 0.94-1.669 1.896-2.487 2.858-0.235 0.276-0.472 0.551-0.706 0.829-0.797 0.95-1.579 1.912-2.353 2.882-0.233 0.294-0.469 0.589-0.7 0.885-0.767 0.977-1.522 1.963-2.266 2.96-0.218 0.293-0.435 0.587-0.652 0.882-0.747 1.019-1.485 2.044-2.208 3.081-0.184 0.265-0.364 0.531-0.546 0.795-0.743 1.083-1.478 2.172-2.194 3.275-0.124 0.191-0.243 0.384-0.366 0.573-0.764 1.189-1.516 2.386-2.248 3.596-1.016 1.684-1.992 3.393-2.943 5.118-0.39 0.708-0.78 1.418-1.156 2.134-0.292 0.546-0.579 1.094-0.862 1.644-0.681 1.324-1.351 2.654-1.993 4.002-3.26 6.844-6.01 13.975-8.209 21.338-2.067 6.916-3.643 14.044-4.691 21.338-1.001 6.972-1.531 14.094-1.531 21.338 0 1.977 0.048 3.942 0.125 5.901 0.026 0.629 0.065 1.255 0.098 1.882 0.07 1.336 0.149 2.667 0.255 3.994 0.057 0.72 0.121 1.438 0.188 2.157 0.117 1.253 0.25 2.501 0.397 3.744 0.085 0.707 0.165 1.415 0.259 2.118 0.182 1.361 0.388 2.714 0.607 4.064 0.09 0.552 0.165 1.107 0.26 1.657 0.319 1.836 0.67 3.662 1.054 5.474 0.129 0.61 0.279 1.213 0.415 1.819 0.277 1.232 0.562 2.461 0.869 3.683 0.198 0.777 0.405 1.549 0.615 2.322 0.282 1.043 0.572 2.083 0.875 3.117 0.239 0.811 0.481 1.62 0.733 2.425 0.312 1 0.64 1.993 0.973 2.984 0.267 0.795 0.526 1.593 0.807 2.381 0.393 1.112 0.811 2.211 1.23 3.312 0.464 1.216 0.945 2.425 1.44 3.627 0.417 1.01 0.831 2.023 1.27 3.023 0.376 0.859 0.771 1.706 1.162 2.555 0.374 0.814 0.75 1.626 1.139 2.431 0.422 0.876 0.856 1.745 1.294 2.612 0.387 0.762 0.782 1.521 1.182 2.276 0.459 0.872 0.922 1.743 1.4 2.603 0.404 0.731 0.825 1.451 1.242 2.174 0.498 0.862 0.986 1.73 1.499 2.58 1e-3 0 1e-3 1e-3 1e-3 1e-3 0.817 1.351 1.654 2.689 2.512 4.012 0.388 0.602 0.792 1.195 1.189 1.791 0.64 0.96 1.289 1.915 1.953 2.859 0.35 0.501 0.7 1 1.055 1.496 1.03 1.428 2.073 2.846 3.151 4.238 4.364 5.633 9.124 10.946 14.235 15.899 5.175 5.014 10.707 9.659 16.561 13.891 24.574 17.769 54.742 28.258 87.319 28.258v-104.96l-3.405 3.407c-4.167 4.167-9.628 6.249-15.087 6.249-5.46 0-10.922-2.083-15.087-6.249l-8.283-8.283-20.167-20.167c-8.333-8.333-8.333-21.844 0-30.177 8.326-8.331 21.837-8.331 30.168 0z" fill="#9CDD05"/>
<path d="m330.7 40.409c-34.938 0-69.457 13.157-96.036 35.96-1e-3 -1e-3 -3e-3 -1e-3 -4e-3 -3e-3 -26.584-22.803-61.101-35.955-96.038-35.955-77.733-2e-3 -138.62 60.89-138.62 138.62 0 93.964 65.421 151.4 164.45 238.33 8.464 7.431 17.2 15.1 26.188 23.049 0.061 0.055 0.124 0.11 0.186 0.164l29.898 25.826c4.003 3.46 8.972 5.188 13.942 5.191h7e-3c4.972 0 9.943-1.731 13.951-5.192l26.699-23.066c-5.852-4.232-11.386-8.876-16.561-13.891-5.111-4.953-9.869-10.266-14.235-15.899-1.078-1.391-2.122-2.808-3.151-4.238-0.357-0.495-0.706-0.996-1.056-1.496-0.663-0.945-1.314-1.898-1.953-2.859-0.398-0.595-0.801-1.188-1.189-1.791-0.856-1.324-1.694-2.66-2.512-4.012 0 0 0-1e-3 -1e-3 -1e-3 -0.512-0.851-1.001-1.718-1.499-2.58-0.417-0.723-0.838-1.444-1.242-2.174-0.478-0.861-0.94-1.731-1.4-2.603-0.4-0.755-0.795-1.512-1.182-2.276-0.44-0.866-0.872-1.735-1.294-2.612-0.388-0.805-0.765-1.617-1.139-2.431-0.391-0.851-0.788-1.697-1.162-2.555-0.44-1-0.854-2.011-1.27-3.023-0.495-1.202-0.976-2.41-1.44-3.627-0.42-1.1-0.838-2.199-1.23-3.312-0.28-0.789-0.542-1.586-0.807-2.381-0.331-0.99-0.66-1.984-0.973-2.984-0.252-0.805-0.494-1.615-0.733-2.425-0.303-1.034-0.593-2.074-0.875-3.117-0.208-0.772-0.417-1.545-0.615-2.322-0.309-1.221-0.592-2.451-0.869-3.683-0.137-0.607-0.286-1.209-0.415-1.819-0.385-1.812-0.737-3.637-1.054-5.474-0.094-0.55-0.171-1.105-0.26-1.657-0.218-1.35-0.425-2.703-0.607-4.064-0.092-0.704-0.174-1.411-0.259-2.118-0.148-1.245-0.28-2.491-0.397-3.744-0.067-0.718-0.131-1.437-0.188-2.157-0.104-1.327-0.185-2.659-0.255-3.994-0.033-0.627-0.074-1.253-0.098-1.882-0.077-1.959-0.125-3.923-0.125-5.901 0-7.243 0.529-14.366 1.531-21.338 1.048-7.293 2.625-14.421 4.691-21.338 2.201-7.363 4.949-14.494 8.209-21.338 0.642-1.347 1.312-2.679 1.993-4.002 0.282-0.55 0.572-1.097 0.862-1.644 0.38-0.714 0.765-1.425 1.156-2.134 0.95-1.725 1.927-3.434 2.943-5.118 0.731-1.212 1.484-2.407 2.248-3.596 0.122-0.191 0.242-0.384 0.366-0.573 0.716-1.102 1.451-2.192 2.194-3.275 0.182-0.266 0.363-0.532 0.546-0.795 0.723-1.037 1.46-2.063 2.208-3.081 0.216-0.294 0.434-0.589 0.652-0.882 0.743-0.996 1.498-1.983 2.266-2.96 0.23-0.296 0.467-0.59 0.7-0.885 0.775-0.97 1.558-1.932 2.353-2.882 0.233-0.277 0.471-0.552 0.706-0.829 0.819-0.962 1.644-1.918 2.487-2.858 0.203-0.225 0.408-0.445 0.612-0.67 0.892-0.983 1.79-1.96 2.706-2.919 0.1-0.105 0.205-0.208 0.304-0.312 4.165-4.333 8.586-8.416 13.244-12.222 0.148-0.121 0.292-0.246 0.441-0.367 0.935-0.758 1.883-1.495 2.835-2.23 0.356-0.275 0.708-0.555 1.067-0.826 0.875-0.664 1.764-1.312 2.656-1.957 0.448-0.326 0.896-0.653 1.347-0.973 0.853-0.603 1.714-1.192 2.58-1.778 0.505-0.343 1.014-0.686 1.525-1.023 0.842-0.555 1.69-1.098 2.542-1.636 0.552-0.348 1.105-0.691 1.663-1.033 0.838-0.512 1.677-1.019 2.525-1.515 0.587-0.344 1.181-0.681 1.774-1.019 0.836-0.474 1.676-0.946 2.521-1.405 0.62-0.336 1.246-0.661 1.871-0.989 0.839-0.44 1.676-0.879 2.522-1.303 0.65-0.326 1.31-0.636 1.966-0.952 0.838-0.404 1.673-0.812 2.519-1.201 0.694-0.319 1.398-0.617 2.098-0.925 0.825-0.363 1.643-0.735 2.475-1.083 1.235-0.516 2.484-1.009 3.736-1.492 0.954-0.37 1.918-0.721 2.879-1.071 0.875-0.319 1.748-0.642 2.632-0.945 0.737-0.252 1.482-0.484 2.223-0.725 0.871-0.283 1.741-0.569 2.619-0.835 0.75-0.229 1.509-0.441 2.265-0.657 0.881-0.253 1.762-0.505 2.652-0.743 0.76-0.203 1.523-0.393 2.287-0.583 0.898-0.225 1.798-0.445 2.7-0.652 0.764-0.176 1.531-0.341 2.297-0.505 0.919-0.196 1.842-0.385 2.768-0.563 0.761-0.148 1.523-0.29 2.29-0.425 0.945-0.168 1.893-0.324 2.845-0.474 0.755-0.118 1.514-0.238 2.273-0.344 0.982-0.138 1.969-0.262 2.956-0.381 0.738-0.09 1.474-0.182 2.216-0.26 1.041-0.11 2.09-0.199 3.138-0.289 0.694-0.058 1.387-0.125 2.084-0.175 1.169-0.083 2.344-0.139 3.521-0.195 0.586-0.027 1.168-0.067 1.755-0.088 1.765-0.061 3.538-0.097 5.319-0.097 7.245 0 14.366 0.531 21.338 1.531 7.295 1.048 14.421 2.625 21.338 4.691 7.259 2.168 14.285 4.875 21.037 8.074 0.098 0.047 0.202 0.09 0.3 0.137 6.938 3.304 13.568 7.145 19.87 11.438 6.683 4.553 12.989 9.622 18.837 15.171 2.62-11.555 3.969-23.232 3.969-34.873 3e-3 -77.738-60.888-138.63-138.62-138.63z" fill="#D8143A"/>
<path d="m344.14 324.77l-13.363-13.362c-8.332-8.332-21.843-8.332-30.176 0s-8.333 21.843 0 30.177l20.167 20.167 8.283 8.283c4.167 4.167 9.628 6.249 15.087 6.249 5.461 0 10.922-2.083 15.087-6.249l3.405-3.407 60.607-60.606c8.333-8.333 8.333-21.844 0-30.177-7.08-7.078-17.884-8.12-26.087-3.172-1.452 0.876-2.835 1.919-4.088 3.172l-30.432 30.432-18.49 18.493z" fill="#79AB03"/>
<g fill="#D8143A">
	<polygon points="362.64 306.28 393.07 275.85 362.64 306.28 344.14 324.77"/>
	<path d="m240.32 407.81c0.35 0.501 0.698 1.001 1.056 1.496-0.356-0.496-0.706-0.995-1.056-1.496z"/>
	<path d="m237.18 403.16c0.388 0.602 0.791 1.195 1.189 1.791-0.399-0.597-0.801-1.189-1.189-1.791z"/>
</g>
<g fill="#B8002B">
	<path d="m164.45 417.36c8.464 7.431 17.2 15.1 26.188 23.049 0.061 0.055 0.124 0.11 0.186 0.164l29.898 25.826c4.003 3.46 8.972 5.188 13.942 5.191v-72.445s0-1e-3 -1e-3 -1e-3c-0.512-0.851-1.001-1.718-1.499-2.58-0.417-0.723-0.838-1.444-1.242-2.174-0.478-0.861-0.94-1.731-1.4-2.603-0.4-0.755-0.795-1.512-1.182-2.276-0.44-0.866-0.872-1.735-1.294-2.612-0.388-0.805-0.765-1.617-1.139-2.431-0.391-0.851-0.788-1.697-1.162-2.555-0.44-1-0.854-2.011-1.27-3.023-0.495-1.202-0.976-2.41-1.44-3.627-0.42-1.1-0.838-2.199-1.23-3.312-0.28-0.789-0.542-1.586-0.807-2.381-0.331-0.99-0.66-1.984-0.973-2.984-0.252-0.805-0.494-1.615-0.733-2.425-0.303-1.034-0.593-2.074-0.875-3.117-0.209-0.772-0.417-1.545-0.615-2.322-0.309-1.221-0.592-2.451-0.869-3.683-0.137-0.607-0.286-1.209-0.415-1.819-0.385-1.812-0.737-3.637-1.054-5.474-0.094-0.551-0.171-1.105-0.26-1.657-0.218-1.35-0.425-2.703-0.607-4.064-0.094-0.704-0.174-1.411-0.259-2.118-0.148-1.245-0.28-2.491-0.397-3.744-0.067-0.718-0.131-1.437-0.188-2.157-0.104-1.327-0.185-2.659-0.255-3.994-0.033-0.627-0.074-1.253-0.098-1.882-0.077-1.959-0.125-3.923-0.125-5.901 0-7.243 0.529-14.366 1.531-21.338 1.048-7.293 2.625-14.421 4.691-21.338 2.201-7.363 4.949-14.494 8.209-21.338 0.642-1.347 1.312-2.679 1.993-4.003 0.282-0.551 0.572-1.097 0.863-1.644 0.38-0.714 0.765-1.425 1.158-2.134 0.95-1.725 1.927-3.434 2.943-5.118v-168.96c-26.584-22.803-61.101-35.955-96.038-35.955-77.73-2e-3 -138.62 60.89-138.62 138.62 0 93.963 65.421 151.4 164.45 238.33z"/>
	<path d="m231.92 394.39c-0.478-0.861-0.94-1.731-1.4-2.603 0.46 0.872 0.922 1.743 1.4 2.603z"/>
	<path d="m220.02 366.59c-0.252-0.805-0.494-1.615-0.733-2.425 0.239 0.81 0.481 1.62 0.733 2.425z"/>
	<path d="m221.8 371.96c-0.28-0.789-0.541-1.586-0.807-2.381 0.265 0.793 0.526 1.591 0.807 2.381z"/>
	<path d="m229.34 389.51c-0.44-0.866-0.872-1.735-1.294-2.612 0.421 0.876 0.854 1.745 1.294 2.612z"/>
	<path d="m226.9 384.47c-0.391-0.849-0.788-1.697-1.162-2.555 0.374 0.858 0.769 1.704 1.162 2.555z"/>
	<path d="m213.5 330.01c-0.033-0.627-0.074-1.253-0.098-1.882 0.024 0.629 0.065 1.253 0.098 1.882z"/>
	<path d="m224.47 378.89c-0.495-1.202-0.976-2.41-1.44-3.627 0.464 1.217 0.945 2.425 1.44 3.627z"/>
	<path d="m216.93 355.04c-0.137-0.607-0.286-1.209-0.415-1.819 0.129 0.61 0.278 1.212 0.415 1.819z"/>
	<path d="m234.66 399.15c-0.512-0.851-1.001-1.718-1.499-2.58 0.498 0.861 0.987 1.729 1.499 2.58z"/>
	<path d="m234.66 245.32c-1.016 1.684-1.993 3.391-2.943 5.118 0.952-1.726 1.928-3.435 2.943-5.118z"/>
	<path d="m214.6 342.03c-0.094-0.704-0.174-1.411-0.259-2.118 0.084 0.707 0.165 1.415 0.259 2.118z"/>
	<path d="m229.7 254.22c0.283-0.551 0.57-1.098 0.863-1.644-0.291 0.547-0.581 1.093-0.863 1.644z"/>
	<path d="m215.46 347.75c-0.094-0.551-0.171-1.105-0.26-1.657 0.09 0.552 0.165 1.108 0.26 1.657z"/>
	<path d="m213.94 336.16c-0.067-0.718-0.131-1.437-0.188-2.157 0.058 0.72 0.122 1.439 0.188 2.157z"/>
	<path d="m218.42 361.05c-0.209-0.772-0.417-1.545-0.615-2.322 0.198 0.778 0.405 1.55 0.615 2.322z"/>
</g>
<g fill="#D8143A">
	<path d="m334.24 175.59c0.761-0.148 1.523-0.29 2.29-0.425-0.766 0.135-1.529 0.277-2.29 0.425z"/>
	<path d="m329.17 176.66c0.764-0.175 1.531-0.341 2.297-0.505-0.765 0.164-1.531 0.33-2.297 0.505z"/>
	<path d="m344.6 173.97c0.738-0.09 1.474-0.182 2.216-0.26-0.743 0.078-1.478 0.17-2.216 0.26z"/>
	<path d="m298.09 187.58c0.838-0.404 1.674-0.812 2.519-1.201-0.846 0.388-1.681 0.797-2.519 1.201z"/>
	<path d="m302.7 185.45c0.825-0.363 1.643-0.734 2.475-1.083-0.832 0.348-1.65 0.721-2.475 1.083z"/>
	<path d="m293.6 189.83c0.839-0.44 1.676-0.879 2.524-1.302-0.848 0.424-1.684 0.864-2.524 1.302z"/>
	<path d="m308.91 182.87c0.954-0.37 1.918-0.721 2.881-1.071-0.963 0.35-1.926 0.701-2.881 1.071z"/>
	<path d="m314.42 180.86c0.737-0.252 1.482-0.484 2.223-0.725-0.741 0.242-1.486 0.474-2.223 0.725z"/>
	<path d="m324.18 177.9c0.76-0.203 1.523-0.393 2.287-0.583-0.762 0.191-1.526 0.381-2.287 0.583z"/>
	<path d="m289.21 192.22c0.836-0.475 1.676-0.946 2.521-1.405-0.847 0.459-1.686 0.93-2.521 1.405z"/>
	<path d="m319.27 179.3c0.75-0.229 1.509-0.441 2.265-0.657-0.757 0.216-1.516 0.428-2.265 0.657z"/>
	<path d="m284.91 194.76c0.836-0.512 1.677-1.019 2.525-1.515-0.848 0.495-1.687 1.002-2.525 1.515z"/>
	<path d="m276.6 200.22c0.853-0.603 1.714-1.192 2.58-1.778-0.864 0.586-1.726 1.175-2.58 1.778z"/>
	<path d="m245.84 229.27c0.774-0.97 1.558-1.932 2.353-2.882-0.795 0.951-1.578 1.912-2.353 2.882z"/>
	<path d="m240.02 237.08c0.723-1.037 1.46-2.063 2.208-3.081-0.748 1.019-1.487 2.044-2.208 3.081z"/>
	<path d="m237.28 241.15c0.716-1.102 1.451-2.192 2.194-3.275-0.745 1.083-1.479 2.173-2.194 3.275z"/>
	<path d="m242.87 233.12c0.743-0.996 1.499-1.983 2.266-2.96-0.768 0.979-1.522 1.964-2.266 2.96z"/>
	<path d="m248.9 225.56c0.818-0.962 1.644-1.918 2.487-2.858-0.843 0.942-1.668 1.897-2.487 2.858z"/>
	<path d="m272.59 203.16c0.875-0.664 1.764-1.312 2.656-1.957-0.892 0.646-1.781 1.293-2.656 1.957z"/>
	<path d="m268.69 206.21c0.933-0.758 1.883-1.495 2.835-2.23-0.951 0.735-1.9 1.473-2.835 2.23z"/>
	<path d="m252 222.03c0.892-0.983 1.79-1.96 2.706-2.919-0.917 0.959-1.814 1.936-2.706 2.919z"/>
	<path d="m339.38 174.7c0.755-0.119 1.514-0.238 2.273-0.344-0.759 0.107-1.517 0.225-2.273 0.344z"/>
	<path d="m236.91 241.72c-0.764 1.189-1.516 2.386-2.248 3.596 0.732-1.21 1.484-2.407 2.248-3.596z"/>
	<path d="m355.56 173.05c0.586-0.027 1.168-0.067 1.755-0.088-0.587 0.02-1.169 0.061-1.755 0.088z"/>
	<path d="m268.25 206.58c-4.656 3.808-9.078 7.889-13.242 12.222 4.162-4.331 8.586-8.414 13.242-12.222z"/>
	<path d="m349.96 173.42c0.694-0.058 1.387-0.125 2.084-0.175-0.698 0.049-1.39 0.116-2.084 0.175z"/>
	<path d="m280.7 197.42c0.842-0.555 1.69-1.1 2.542-1.636-0.852 0.536-1.7 1.081-2.542 1.636z"/>
</g>
</svg>
